<?xml version="1.0" encoding="utf-8"?>
<!-- Generator: Adobe Illustrator 26.3.1, SVG Export Plug-In . SVG Version: 6.00 Build 0)  -->
<svg version="1.1" id="Calque_1" xmlns="http://www.w3.org/2000/svg" xmlns:xlink="http://www.w3.org/1999/xlink" x="0px" y="0px"
	 viewBox="0 0 841.9 595.3" style="enable-background:new 0 0 841.9 595.3;" xml:space="preserve">
<style type="text/css">
	.st0{fill:none;stroke:#FCFCFC;stroke-width:2;stroke-miterlimit:10;}
</style>
<g>
	<path class="st0" d="M169.7,132.4c-6.2,4.3-11.8,8.1-17.4,12.1c-27.3,19.5-54.6,39-81.9,58.6c-1.7,1.2-3.2,2.7-4.6,4.2
		C51.2,224.2,36.6,241,22.1,258c-1.4,1.6-2.8,3.8-2.8,5.8c-0.8,23.4-1.4,46.8-2,70.1c-0.1,4.3,0.5,8.6,0.8,12.9
		c1,16.1,4.6,31.6,13.2,45.2c20.9,33.2,48.2,58.6,87,69.7c13.6,3.9,27.3,7.4,41.5,4.6c13-2.6,25.7-6.1,38.7-8.7
		c7-1.4,13.1-4,18.5-8.8c3.5-3.1,7.8-5.4,11.5-8.3c5.7-4.5,11.6-8.8,16.7-13.9c3.5-3.6,7.2-8,8.4-12.7c3.3-12.5,5.9-25.2,7.5-38.1
		c2.5-19.7-1.2-38-14.7-53.5c-15.3-17.6-35.1-27.4-57.2-33.4c-5-1.4-9.8-1.6-14.8-0.3c-2.5,0.7-5.2,0.8-9,1.3
		c1.2-1.8,1.5-2.5,2.1-3.1c27.9-32.1,55.8-64.1,83.8-96.2c3.3-3.8,3.3-4.6-0.5-8.8c-1.3,0.6-2.7,1.3-4,1.9
		c-12.1,5.8-24.4,11.1-38,11.7c-10.4,0.5-19.3-2.4-25.3-11.6c-2.6-3.9-10.3-5.3-14.2-2.6c-26.1,18.3-52.3,36.7-78.3,55.1
		c-1.8,1.2-3.7,2.9-4.5,4.7c-2.3,5.7-6.8,9-11.8,11.9c-1,0.6-2,1.3-3,1.9c2.5,4.5,2.9,4.9,6.8,2.8s7.5-4.8,11.3-7.1
		c3.4-2.1,6.9-3.9,11.1-6.3c0.4,3.2,0.8,5.2,0.8,7.2c-0.3,22-0.6,44-0.9,66.1c-0.4,29.4-0.9,58.8-1,88.2c0,7.7-2.3,14.2-6.6,20.2
		c-0.5,0.7-0.9,1.5-1.9,3.2c8.6-3.1,17.4-3.3,21.6-12.4c1.3-2.7,3.5-5,5.3-7.5c10.7-15.2,16.7-31.8,14.5-50.6
		c-1-8.7-2.4-17.4-3.4-26.1c-0.2-1.8,0.5-4.1,1.7-5.5c4.8-5.6,9.9-11,14.9-16.4c0.8-0.9,1.9-1.6,3.6-3c0,2.4,0,3.6,0,4.9
		c0.3,47.3,0.5,94.5,0.8,141.8c0,5-0.7,5.9-5.5,4.7c-8.5-2.1-17.2-4-25.3-7.2c-30.1-12-53.9-31.4-66.8-62c-9.4-22.2-8.7-46-8.2-69.5
		c0.2-7.9,1.7-15.8,2.8-23.6C50.9,270,57.9,244,68.4,219c2.4-5.7,6.3-10,11.4-13.5c16.7-11.6,33.3-23.4,49.9-35.2
		c9.8-6.9,19.6-13.7,29.3-20.8C164.5,145.4,168.4,140.1,169.7,132.4z M371.3,316c0.6,0.2,1.1,0.5,1.7,0.7c1.8-2.4,3.3-5,5.3-7.3
		c4.1-4.6,8.4-4.3,11.6,0.9c1.7,2.7,2.8,5.7,3.8,8.7c4.4,13.2,3.6,26.6,1.4,40.1c-1.3,7.5-4.9,13.2-11.4,17.1
		c-2.7,1.7-5.4,3.5-7.7,5.7c-5.4,4.9-5.5,14.5,0.4,19.6c2-3.6,3.6-7.3,5.8-10.5c2.2-3.2,4.8-6.4,7.8-8.8c2-1.6,4.8-1.6,6.9,1.3
		c2,2.9,0.7,4.6-1.1,6.5c-9.7,10.5-16.4,23-20.5,36.5c-12.7,41.6-13.8,83.6-2.5,125.7c1.9,7.2,4.8,14.4,8.7,20.6
		c6.5,10.5,17.8,11.4,26.6,2.7c3.4-3.4,6.3-7.5,8.6-11.7c7.2-13.2,10.9-27.7,13.9-42.3c6.6-32.9,6-66,0.4-99
		c-2.6-15-6.3-29.7-14.6-42.8c-1.7-2.8-1.4-4.6,0.6-6.5c3.5-3.4,7.2-6.6,10.8-9.9c2.4-2.2,3.7-4.7,2.5-8.7c-1.8,1.5-3.4,2.6-4.8,4.1
		c-3.8,3.8-7.5,7.9-11.4,11.6c-1.1,1.1-3.4,2.1-4.6,1.7c-3.4-1.4-6.5-3.5-10-5.5c1-1.4,1.6-2.3,2.3-3.1c7.1-8.9,13.6-17.9,16.5-29.2
		c3.3-13,4.7-26,1.2-39.2c-0.8-2.9-0.4-5.3,1.8-7.6c4.8-5.1,9.4-10.3,14.1-15.4c6.2-6.7,11.3-14.1,14.4-22.8
		c4.8-13.1,6.7-26.8,6.9-40.6c0.3-27.9-0.4-55.8,0.2-83.6c0.3-13-6-23.8-9.5-36.7c-8.1,10.9-15.7,21-23.2,31.1
		c-0.5-0.2-1.1-0.4-1.6-0.6c0-7.2-0.2-14.5,0-21.7c0.4-13.2,0.7-26.4,1.5-39.6c0.4-7.2,4.5-11.7,11.6-13.5c1.6-0.4,3-1.4,4.5-2.1
		c-0.1-0.6-0.2-1.2-0.3-1.9c-3,0-6.1-0.4-9.1,0.1c-13.3,1.9-22.5,10.8-25.3,24c-0.6,2.8-1.4,5.6-2.1,8.4c-0.3,0-0.6-0.1-0.9-0.1
		c-2.1-6.7-4.1-13.4-6.2-20.1c-0.5,0.2-1.1,0.3-1.6,0.5c1,3.7,2.2,7.3,3.1,11c1.8,7.4,4.8,14.8,4.9,22.3c0.8,36,0.9,71.9,1.1,107.9
		c0,5.4,0,11.1-5.9,13.5c5.8,8.5,11.4,16.6,16.6,24.1c5.6-8,11.7-16.6,18.3-26.1c-7.8,1.3-8.7,0.5-9.5-6.1c-0.2-1.9-0.2-3.9-0.2-5.8
		c0-21.3,0.1-42.7,0-64c0-4.5,1.9-7.7,4.9-10.6c3.5-3.3,5.6-3,6.9,1.6c1.3,4.8,2.3,9.8,2.4,14.7c0.4,25.2,0.5,50.5,0.5,75.7
		c0,17.8-0.4,35.7-5.3,53.1c-2.5,8.9-7.5,16.2-14.2,23.7c-4.7-11.7-9-22.6-13.6-34.1c-0.4,0.7-0.6,1-0.8,1.4
		c-9.6,17-19.2,33.9-28.6,51C373.4,309,372.6,312.6,371.3,316z M286.8,487.5c8-16.1,16.6-31.7,27-46.8c1.7,17.1,7.4,32.4,16.8,45.1
		c7.8-14.6,15.9-29.5,23.8-44.4c0.6-1.1,0.1-2.7,0.1-4.1c-1.5,0.5-1.9,1.1-2.3,1.6c-3.8,4.8-7.1,4.6-8.9-1.1
		c-1.3-4.1-1.9-8.5-2-12.7c-0.3-28-0.5-56-0.6-84c0-8.1,0-16.2,0.3-24.2c0.2-4.8,2.2-8.8,7-11c4-1.9,4.2-3.9,1.1-6.9
		c-1.3-1.2-3-2.1-4.3-3.3c-4-3.4-8.7-6.4-11.6-10.6c-5-7.1-8.8-15.1-13-22.7c-1.4-2.5-2.6-5.2-4.3-8.5c-11,17.9-22.6,33.6-37.5,46.8
		c-7.5,6.6-9.4,15.8-9.2,25.5c0.2,9.3,0,18.6,0,28c0,29,0.1,58-0.1,87C269,458.5,276.5,473.2,286.8,487.5z M487,486.8
		c1.4-2.4,2.5-4.1,3.4-5.9c5.6-10.9,11-21.9,16.8-32.6c4.2-7.7,8.9-15.1,13.2-22.7c0.8-1.4,1-3.1,1.5-4.6c-0.4-0.2-0.8-0.3-1.1-0.5
		c-2.7,3.5-5.2,7.1-8,10.5c-5.6,6.8-11.4,7.1-17.8,1.2c-5.1-4.8-8.6-10.6-10.5-17.3c-2.1-7.5-3.8-15.1-5.3-22.7
		c-0.4-2,0.1-4.7,1.2-6.5c11.9-18.2,23.8-36.4,36-54.3c2.7-3.9,3-7.3,1.7-11.7c-6.4-21.3-12.5-42.7-18.7-64.1
		c-0.3-0.9-0.9-1.8-1.6-3.4c-12,13-23.9,25.1-34.7,38.2c-4.4,5.4-7.2,12.7-8.5,19.6c-2.1,11.7-2.9,23.8-3.5,35.7
		c-0.9,17.4-1.7,34.8,0.6,52.2c1.4,10.9,1.7,22,3.5,32.8c3.4,19.5,11.9,36.7,26.1,50.8C482.9,483.2,484.7,484.8,487,486.8z
		 M644.3,192c-0.5-0.1-1.1-0.2-1.6-0.2c-0.7,2.5-1.7,4.9-2.1,7.4c-1.3,8.2-1.8,16.6-3.5,24.8c-3.3,15.8-6.6,31.6-11.1,47.1
		c-3.4,11.7-7.5,23.4-17.3,31.9c-1.4,1.2-1.8,3.4-3.2,6.1c3.4,0,5.6,0.3,7.7-0.1c4-0.6,5.2,1.5,5.4,4.9c0.1,1.4,0.2,2.8,0.1,4.2
		c-0.2,7.1-0.7,14.2-0.7,21.3c0.2,27,0.5,54.1,0.6,81.1c0,3.4-0.7,6.9-1.8,10.2c-1,3.1-3.1,5.7-8.4,3.4c1.2,3,1.4,5.8,2.8,6.6
		c5.9,3.5,10.1,8.5,12.9,14.4c4.5,9.3,8.3,18.9,12.4,28.3c0.1-0.2,0.7-1,1.1-1.8c8.4-16.9,16.8-33.9,25.2-50.9
		c1.2-2.5,2.2-5.1,3.1-7.7c0.3-0.8-0.2-1.9-0.3-2.8c-0.4-0.1-0.8-0.2-1.1-0.3c-1.3,1.7-2.7,3.4-3.8,5.2c-1.9,3-4,5.5-8,4.7
		s-5.3-3.9-5.6-7.4c-0.6-7.3-1.2-14.7-1.2-22.1c-0.2-28.9-0.3-57.7-0.4-86.6c0-1.4,0-2.7,0-5c6.6,0,12.8,0,19.4,0
		c0-10.4,0-19.9,0-30c-5.1,0-9.6,0-14,0c-5.7-0.1-5.7-0.1-5.7-6c-0.1-25.4-0.3-50.7-0.4-76.1C644.8,195.1,644.5,193.5,644.3,192z
		 M571.7,191.4c-3.5,4.1-3.5,8.2-3.9,12c-2.4,23.2-7,46-14.1,68.1c-3.7,11.6-7.8,23.2-17.3,31.8c-1.4,1.3-1.8,3.7-3,6.5
		c3.1,0,5,0,6.9,0c5.4-0.1,5.9,0.2,5.8,5.8c-0.1,5-0.6,10-0.6,15c0.2,31.9,0.5,63.8,0.6,95.7c0,6.3-2.3,8.6-8.5,9.4
		c-0.6,4.4-0.7,4.6,2.9,6.9c5.3,3.3,9.2,7.8,11.6,13.4c3.8,8.6,7.1,17.5,10.6,26.2c0.3,0.8,0.7,1.5,1.3,2.9c1-1.9,1.6-3.1,2.2-4.3
		c6.4-13.3,12.6-26.6,19.1-39.9c2.3-4.8,5.1-9.3,7.3-14c0.9-1.8,0.7-4.1,1.1-6.2c-0.4-0.1-0.8-0.1-1.1-0.2c-1.9,2.3-3.6,4.9-5.8,6.9
		c-5.3,5-9.9,4-11.7-3.1c-1.4-5.7-2.1-11.8-2.2-17.7c-0.1-30.9,0.1-61.9,0-92.8c0-3.8,1.4-4.9,4.8-4.8c4.7,0.1,9.4,0,13.9,0
		c0.3-0.7,0.4-1,0.4-1.2c0.2-6.4,0.3-12.8,0.5-19.2c0.3-9.8,0.3-9.8-9.6-9.6c-10.8,0.2-10.7,0.2-10.7-11c0.1-24,0-47.9-0.1-71.9
		C572.2,194.9,571.9,193.7,571.7,191.4z M805,276.5c-0.1-0.6-0.1-1.2-0.2-1.8c-1.5-0.1-3.1-0.6-4.5-0.2c-1.6,0.4-2.9,1.6-4.3,2.5
		c-2.7,1.7-4.8,2-7.8-0.2c-3.1-2.4-7-4.1-10.8-5.1c-10.9-2.7-20.9,0.7-30.7,5.1c-1.5,0.7-2.9,1.2-4.8,2c0-13-0.4-25.4,0.1-37.8
		c0.4-9.3,4.9-13.5,13.8-16.1c7.6-2.3,14.4-0.3,20.7,3.6c6.6,4.2,12.7,9,19,13.6c2,1.5,3.8,3.1,6.2,0.8c7.3-7.2,14.7-14.4,22-21.6
		c0.9-0.9,1.4-2.3,2.1-3.5c-0.4-0.3-0.8-0.6-1.2-0.9c-3.4,3.6-6.8,7.3-10.2,10.9c-2,2.2-4.3,2.5-6.7,0.9c-3.1-2.1-6.4-4-9.2-6.5
		c-6.4-5.7-14-8.7-22.3-9.6c-5.5-0.6-11.4-1.3-16.5,0.1c-5,1.4-9.6,5.1-13.7,8.5c-6,5-9.2,11.4-9.1,19.7c0.1,40.1-0.1,80.3,0,120.4
		c0,5.6-2.4,9.1-7.3,10.9c-4,1.4-8.3,2.5-12.5,3.1c-9.8,1.4-19,4.2-26.9,10.5c-9.5,7.6-16.5,16.8-17,29.4
		c-0.7,18.9,13.3,35.4,33,39.6c17.4,3.6,34.4,0.6,51.3-3.3c0.8-0.2,1.5-0.7,2.3-1c-0.1-0.4-0.2-0.8-0.3-1.2
		c-7.7,0.9-15.5,1.4-23.1,2.7c-16.4,2.8-31.7,0.5-45.3-9.4c-16.2-11.8-17.5-31.5-2.9-44.3c2.8-2.4,6-4.6,9.3-6.2
		c20.8-9.8,47.3-11.1,72.2,10.8c6.2,5.4,9.4,6,16.3,1.5c7.3-4.8,14-10.5,21.1-15.8c-1.1-2.5-1.9-4.5-3.2-7.5
		c-1.1,2.3-1.6,3.5-2.2,4.8c-2.1,5-3.1,5.3-7.5,2.5c-4.9-3.1-9.7-6.5-15-9.1c-2.6-1.3-3.6-2.4-3.6-5.1c-0.1-23.8-0.2-47.7-0.2-71.5
		c0-1.5,0.6-3.5,1.7-4.4c6.4-5.6,12.9-11,19.5-16.2C799.2,279.7,802.2,278.2,805,276.5z M506.4,89.1c-7.5,6.3-14.6,12.1-21.6,18
		c-7.2,6.1-11.2,14-12.5,23.4c-3.1,23-1.8,45.9,2.1,68.6c2.6,15,10.5,26.4,23.1,34.4c8.9-13.2,17.6-26.2,26.4-39.3
		c-0.3-0.3-0.7-0.6-1-0.9c-1.7,1.7-3.4,3.3-5,5.2c-4.3,5-8.6,5.6-13.8,1.5c-6.8-5.5-10.5-12.8-12.5-21.2c-0.8-3.2,0.1-5.8,2.2-8.4
		c8.7-10.7,17-21.7,25.8-32.4c2.1-2.5,2.2-4.6,1.1-7.5c-4.3-12.5-8.4-25-12.6-37.6C507.7,91.7,507,90.5,506.4,89.1z M387.8,195.3
		c-0.6-0.5-1.2-0.9-1.7-1.4c-1.4,1.7-2.6,3.6-4.2,4.9c-3.5,2.9-6.6,2.1-8.2-2.2c-0.9-2.4-1.5-5.1-1.5-7.7
		c-0.1-19.9-0.1-39.8-0.2-59.8c0-2.6,1.1-3.5,3.4-3.5c3.4,0,6.9,0,10.5,0c0-6.3,0-12.2,0-18.4c-4.7-0.2-9.1-0.4-14.4-0.6
		c0-18.3,0-36.3,0-54.2c-0.5-0.1-1.1-0.1-1.6-0.2c-0.4,1.5-0.9,2.9-1.2,4.4c-1.4,7.4-2.6,14.8-4.1,22.2
		c-3.3,16.2-7.9,31.9-20.4,43.9c-0.6,0.6-1,1.6-1.8,2.9c1.9,0.3,3.4,0.9,4.8,0.7c4.1-0.6,5.2,1.6,5.1,5c-0.1,6.8-0.3,13.6-0.4,20.5
		c0,14.9,0,29.8,0.2,44.7c0,3.3-1.3,5.5-4,7.1c-0.9,0.5-2,0.9-3,1.4c0.7,0.9,1.4,1.9,2.2,2.8c4.3,5,8.9,9.8,12.8,15.2
		c2.2,3.1,3.2,7,5,11.3C372.8,221,380.3,208.2,387.8,195.3z M693.6,371.7c0.2,0.5,0.4,1,0.7,1.4c3.2-1,6.5-1.7,9.6-3
		c17.2-6.9,16.6-5.1,16.6-24.4c0-19-0.7-37.9-0.9-56.9c0-3.3,0.2-6.8,1.3-9.8c2.6-7.2,2.4-14-0.7-21c-2.6-5.9-1-11.2,3.9-15.4
		c1.9-1.7,4-3.2,6-4.8c-0.2-0.4-0.4-0.9-0.6-1.3c-2.1,0.6-4.3,0.9-6.2,1.8c-2.3,1-4.2,2.8-6.4,3.9c-13.4,6.8-18.6,17.7-16.5,32.4
		c0.1,0.7,0.1,1.4,0.2,2.1c0.5,6.5,0.5,6.6-6.1,6.2c-5.2-0.3-9.9,1-11.8,6c-2.2,5.9-3.2,12.2-4.8,18.3c0.6,0.3,1.1,0.6,1.7,0.8
		c1.2-1.3,2.6-2.5,3.4-4.1c1.6-2.9,3.8-4.3,7.1-4c1.8,0.2,3.6,0.2,5.4,0c3.9-0.4,5.4,1,5.3,5.2c-0.2,18-0.2,36,0.1,53.9
		c0.1,5-0.6,9.1-5.8,11C694.5,370.3,694.1,371.1,693.6,371.7z M670.9,255.3c0.4-0.3,0.9-0.7,1.3-1c-1.2-1.6-2.5-3.2-3.5-4.9
		c-1.8-2.8-3.7-5.6-5-8.6c-1.4-3.3-1.1-6.7,2-9.1c5.2-3.9,10.8-6.4,17.5-4.1c4.6,1.6,9.1,3.6,13.7,4.9c4.1,1.1,8.6,2.7,12.5,1.9
		c13.1-2.6,23.4-9.9,30.6-21.3c0.1-0.1-0.1-0.5-0.3-1.2c-2.5,1.3-5,2.5-7.3,3.9c-6.8,4.2-13.7,4.7-21,1.1c-5.2-2.6-10.6-5-16.1-6.9
		c-4.6-1.6-9.3-2.5-14.3-0.6c-12.5,4.7-17.5,15.1-21,26.7c-0.5,1.6,0.4,3.8,1.2,5.5c1.6,3.1,3.5,6,5.4,8.9
		C668,252.2,669.5,253.7,670.9,255.3z"/>
	<path class="st0" d="M169.7,132.4c-1.3,7.7-5.2,13-10.7,17.1c-9.6,7.1-19.5,13.9-29.3,20.8c-16.6,11.7-33.1,23.6-49.9,35.2
		c-5.1,3.5-9,7.9-11.4,13.5c-10.5,25-17.5,51-21.1,77.9c-1,7.9-2.6,15.7-2.8,23.6c-0.6,23.5-1.2,47.3,8.2,69.5
		c12.9,30.5,36.6,49.9,66.8,62c8.1,3.2,16.8,5.1,25.3,7.2c4.8,1.2,5.5,0.3,5.5-4.7c-0.3-47.3-0.5-94.5-0.8-141.8c0-1.2,0-2.5,0-4.9
		c-1.7,1.4-2.8,2.1-3.6,3c-5,5.4-10.1,10.8-14.9,16.4c-1.2,1.4-1.8,3.7-1.7,5.5c0.9,8.7,2.4,17.4,3.4,26.1
		c2.2,18.9-3.8,35.4-14.5,50.6c-1.8,2.5-4,4.8-5.3,7.5c-4.1,9-13,9.2-21.6,12.4c1-1.7,1.4-2.5,1.9-3.2c4.3-6.1,6.5-12.6,6.6-20.2
		c0.1-29.4,0.6-58.8,1-88.2c0.3-22,0.7-44,0.9-66.1c0-2-0.4-4-0.8-7.2c-4.2,2.4-7.7,4.2-11.1,6.3c-3.8,2.3-7.4,5-11.3,7.1
		s-4.3,1.7-6.8-2.8c1-0.6,2-1.3,3-1.9c5-2.9,9.5-6.2,11.8-11.9c0.8-1.9,2.7-3.5,4.5-4.7c26.1-18.4,52.2-36.7,78.3-55.1
		c3.9-2.7,11.7-1.3,14.2,2.6c6,9.2,14.9,12,25.3,11.6c13.7-0.6,25.9-6,38-11.7c1.4-0.7,2.7-1.3,4-1.9c3.8,4.2,3.8,5,0.5,8.8
		c-27.9,32-55.9,64.1-83.8,96.2c-0.5,0.6-0.9,1.3-2.1,3.1c3.7-0.5,6.4-0.6,9-1.3c5-1.3,9.9-1.1,14.8,0.3c22,6.1,41.8,15.8,57.2,33.4
		c13.5,15.5,17.3,33.8,14.7,53.5c-1.7,12.8-4.3,25.6-7.5,38.1c-1.2,4.7-4.9,9.1-8.4,12.7c-5.1,5.1-11,9.4-16.7,13.9
		c-3.7,2.9-8,5.2-11.5,8.3c-5.4,4.8-11.5,7.4-18.5,8.8c-13,2.6-25.7,6.1-38.7,8.7c-14.2,2.8-27.9-0.7-41.5-4.6
		c-38.7-11.1-66.1-36.5-87-69.7C22.7,378.5,19,363,18.1,347c-0.3-4.3-0.9-8.6-0.8-12.9c0.5-23.4,1.1-46.8,2-70.1
		c0.1-2,1.5-4.2,2.8-5.8c14.5-17,29.1-33.8,43.7-50.7c1.4-1.6,2.9-3,4.6-4.2c27.3-19.6,54.6-39.1,81.9-58.7
		C157.9,140.5,163.5,136.7,169.7,132.4z M221.6,212.5c-0.3-0.5-0.6-0.9-0.9-1.4c-2.8,0.9-5.7,1.8-8.5,2.8c-20.7,7.3-40.9,7.6-60-4.8
		c-0.8-0.5-2.3-1-2.9-0.6c-6,3.5-11.9,7.1-17.9,10.7c-2.4,1.5-2.9,3.6-2.9,6.4c0.1,30.1,0.1,60.2,0.1,90.3c0,1.3,0,2.6,0,4
		c0.4,0.2,0.7,0.3,1.1,0.5c4.9-5,9.8-10.1,14.9-14.9c3.9-3.7,5.8-7.7,5.3-13.2c-0.5-5.4-0.2-10.9-0.2-16.3
		c-0.1-6.8-0.3-13.7-0.2-20.5c0-1.5,0.5-3.8,1.5-4.4c3.2-2,8.9,1.8,8.9,5.7c0,7.9-0.3,15.9-0.3,23.8c0,1.8,0.5,3.5,0.9,6.1
		C181.3,261.2,201.5,236.8,221.6,212.5z M159.4,403.4c3.9-2.3,6.8-4.2,9.8-5.7c3.6-1.8,7.2-3.8,11-4.9c7.3-2.1,14.1,0,20.4,3.6
		c5.3,3,10.5,6.2,16.4,9.7c1-3,2-5.2,2.6-7.6c0.7-2.8,1.2-5.7,1.5-8.6c1.1-9.4,2.9-18.8,2.8-28.1c-0.1-9.7-1.5-10.6-10.8-7.7
		c-17.5,5.4-33.5,2.2-49.1-6.1c-1.4-0.7-2.9-1.4-4.6-2.2C159.4,365.1,159.4,383.7,159.4,403.4z M158.8,318.4c0.1,0,0.2,0,0.3,0
		c0,6-0.1,12,0.1,18c0.1,1.2,1.4,3.2,2.5,3.5c10.1,2.7,20.2,5.4,30.4,7.4c8.3,1.6,16.8,2.4,25.1-0.8c2.8-1.1,4-2.6,2.9-5.7
		c-2.9-7.7-5.2-15.6-8.6-23c-5.6-12.2-15.4-19.9-28.8-21.5c-6.7-0.8-13.6,0.2-20.3,0.6c-2.6,0.2-3.6,2.2-3.6,4.8
		C158.8,307.2,158.8,312.8,158.8,318.4z M185,398.7c-0.1,0.3-0.2,0.6-0.3,0.9c-0.7,0-1.5-0.2-2.1,0c-7.3,3.6-14.6,7.3-21.9,11
		c-0.7,0.3-1.2,1.6-1.2,2.4c0,13.8,0,27.5,0,41.3c0,2.7,1.3,3.5,3.8,2.4c10.1-4.3,20.3-8.4,30.2-13.1c3.2-1.5,6.2-4.3,8.3-7.3
		c3.6-5.1,6.5-10.7,9.5-16.1c0.9-1.5,1.8-3.3,1.8-5c0-1.4-0.8-3.4-2-4.2c-3.6-2.4-7.3-4.6-11.2-6.4C195.1,402.5,190,400.7,185,398.7
		z"/>
	<path class="st0" d="M371.3,316c1.2-3.4,2-7,3.8-10.2c9.4-17.1,19-34,28.6-51c0.2-0.3,0.4-0.7,0.8-1.4c4.6,11.5,8.9,22.4,13.6,34.1
		c6.7-7.5,11.7-14.7,14.2-23.7c4.9-17.4,5.3-35.2,5.3-53.1c0-25.2-0.1-50.5-0.5-75.7c-0.1-4.9-1.1-10-2.4-14.7
		c-1.3-4.6-3.4-4.9-6.9-1.6c-3.1,2.8-4.9,6-4.9,10.6c0.2,21.3,0,42.7,0,64c0,2,0,3.9,0.2,5.8c0.8,6.6,1.7,7.3,9.5,6.1
		c-6.7,9.5-12.7,18.1-18.3,26.1c-5.2-7.6-10.8-15.7-16.6-24.1c5.8-2.5,5.9-8.1,5.9-13.5c-0.2-36-0.3-71.9-1.1-107.9
		c-0.2-7.5-3.1-14.9-4.9-22.3c-0.9-3.7-2-7.3-3.1-11c0.5-0.2,1.1-0.3,1.6-0.5c2.1,6.7,4.1,13.4,6.2,20.1c0.3,0,0.6,0.1,0.9,0.1
		c0.7-2.8,1.5-5.6,2.1-8.4c2.7-13.2,11.9-22.1,25.3-24c3-0.4,6.1-0.1,9.1-0.1c0.1,0.6,0.2,1.2,0.3,1.9c-1.5,0.7-2.9,1.7-4.5,2.1
		c-7.1,1.8-11.2,6.4-11.6,13.5c-0.8,13.2-1.1,26.4-1.5,39.6c-0.2,7.2,0,14.5,0,21.7c0.5,0.2,1.1,0.4,1.6,0.6
		C431.5,109,439,99,447.2,88c3.5,13,9.8,23.7,9.5,36.7c-0.6,27.9,0.1,55.8-0.2,83.6c-0.1,13.8-2.1,27.5-6.9,40.6
		c-3.1,8.7-8.2,16.1-14.4,22.8c-4.7,5.1-9.3,10.4-14.1,15.4c-2.2,2.3-2.6,4.7-1.8,7.6c3.5,13.2,2.2,26.2-1.2,39.2
		c-2.9,11.3-9.4,20.4-16.5,29.2c-0.7,0.9-1.3,1.8-2.3,3.1c3.5,2,6.6,4.1,10,5.5c1.2,0.5,3.5-0.6,4.6-1.7c4-3.7,7.6-7.8,11.4-11.6
		c1.4-1.4,3.1-2.6,4.8-4.1c1.2,4-0.1,6.5-2.5,8.7c-3.6,3.3-7.2,6.5-10.8,9.9c-2,1.9-2.3,3.8-0.6,6.5c8.3,13.1,12,27.8,14.6,42.8
		c5.6,33,6.2,66.1-0.4,99c-2.9,14.6-6.7,29.1-13.9,42.3c-2.3,4.2-5.2,8.4-8.6,11.7c-8.7,8.7-20.1,7.8-26.6-2.7
		c-3.9-6.3-6.8-13.5-8.7-20.6c-11.2-42.1-10.2-84.1,2.5-125.7c4.1-13.5,10.8-26,20.5-36.5c1.8-1.9,3.1-3.6,1.1-6.5
		c-2.1-3-4.9-2.9-6.9-1.3c-3,2.4-5.6,5.6-7.8,8.8c-2.2,3.2-3.9,6.9-5.8,10.5c-5.8-5.1-5.7-14.6-0.4-19.6c2.3-2.2,5-4,7.7-5.7
		c6.5-4,10.1-9.6,11.4-17.1c2.3-13.5,3.1-26.9-1.4-40.1c-1-3-2.2-6.1-3.8-8.7c-3.2-5.2-7.4-5.5-11.6-0.9c-2,2.2-3.6,4.8-5.3,7.3
		C372.5,316.5,371.9,316.3,371.3,316z M399.3,392.5c-2.2,2.6-4.2,4.7-5.8,7c-7.9,11.5-11.5,24.7-13,38.3
		c-3.7,33.5-6.8,67.1-1.6,100.8c1.3,8.2,2.2,16.6,4.2,24.6c0.9,3.5,3.7,6.7,6.1,9.6c1.9,2.2,4.9,2,6.4-0.6c2.2-3.6,4.8-7.5,5.4-11.5
		c2.1-13.9,4.8-27.9,4.9-41.8c0.2-36.6-0.7-73.2-1.4-109.9C404.4,403.6,403.4,398.1,399.3,392.5z"/>
	<path class="st0" d="M286.8,487.5c-10.3-14.3-17.8-29-17.7-46.6c0.2-29,0.1-58,0.1-87c0-9.3,0.2-18.7,0-28
		c-0.2-9.8,1.7-18.9,9.2-25.5c14.9-13.2,26.5-28.9,37.5-46.8c1.7,3.3,2.9,6,4.3,8.5c4.2,7.6,8,15.6,13,22.7
		c2.9,4.2,7.6,7.2,11.6,10.6c1.4,1.2,3,2,4.3,3.3c3.2,3,3,5-1.1,6.9c-4.8,2.2-6.8,6.2-7,11c-0.3,8.1-0.3,16.2-0.3,24.2
		c0.1,28,0.3,56,0.6,84c0.1,4.3,0.7,8.7,2,12.7c1.8,5.7,5.1,5.9,8.9,1.1c0.4-0.5,0.8-1.1,2.3-1.6c0,1.4,0.5,3-0.1,4.1
		c-7.9,15-15.9,29.9-23.8,44.4c-9.4-12.7-15.1-27.9-16.8-45.1C303.5,455.8,294.8,471.4,286.8,487.5z M297.7,294.3
		c-0.3,0.1-0.6,0.2-1,0.3c-0.1,0.6-0.1,1.3-0.1,1.9c0.1,46,0.1,91.9,0.3,137.9c0,3.2,1.1,6.5,2.3,9.6c0.9,2.5,3.3,3.3,5.4,1.4
		c5.1-4.6,9.5-9.6,9.4-17.3c-0.4-35.5-0.6-71.1-0.7-106.6c0-3.8-1.3-6.6-3.6-9.4c-2.8-3.4-5.2-7.2-7.7-10.9
		C300.6,299,299.2,296.6,297.7,294.3z"/>
	<path class="st0" d="M487,486.8c-2.2-2-4.1-3.6-5.9-5.4c-14.2-14.1-22.7-31.3-26.1-50.8c-1.9-10.8-2.1-21.9-3.5-32.8
		c-2.3-17.4-1.5-34.8-0.6-52.2c0.6-11.9,1.3-24,3.5-35.7c1.3-6.9,4.1-14.3,8.5-19.6c10.7-13.1,22.7-25.2,34.7-38.2
		c0.8,1.6,1.4,2.5,1.6,3.4c6.2,21.4,12.4,42.8,18.7,64.1c1.3,4.3,1,7.8-1.7,11.7c-12.2,18-24.2,36.1-36,54.3
		c-1.1,1.7-1.6,4.4-1.2,6.5c1.5,7.6,3.2,15.3,5.3,22.7c1.9,6.6,5.4,12.5,10.5,17.3c6.4,6,12.2,5.6,17.8-1.2c2.8-3.4,5.4-7,8-10.5
		c0.4,0.2,0.8,0.3,1.1,0.5c-0.5,1.5-0.7,3.2-1.5,4.6c-4.4,7.6-9.1,15-13.2,22.7c-5.8,10.8-11.2,21.8-16.8,32.6
		C489.5,482.7,488.4,484.5,487,486.8z M479.3,283.7c-0.4,0.1-0.9,0.2-1.3,0.3c0,31,0,62,0,92.9c0.4,0.1,0.9,0.3,1.3,0.4
		c0.8-1,1.5-2.1,2.3-3.2c4.2-6.2,8.6-12.3,12.6-18.7c1.1-1.7,1.5-4.4,1.1-6.4c-3.8-15.9-7.8-31.8-11.7-47.7
		C482.1,295.5,480.7,289.6,479.3,283.7z"/>
	<path class="st0" d="M644.3,192c0.2,1.5,0.5,3.1,0.5,4.6c0.2,25.4,0.3,50.7,0.4,76.1c0,5.8,0,5.9,5.7,6c4.4,0.1,8.9,0,14,0
		c0,10.1,0,19.6,0,30c-6.6,0-12.9,0-19.4,0c0,2.2,0,3.6,0,5c0.1,28.9,0.2,57.7,0.4,86.6c0.1,7.4,0.6,14.7,1.2,22.1
		c0.3,3.4,1.7,6.6,5.6,7.4c4,0.8,6.1-1.7,8-4.7c1.1-1.8,2.6-3.5,3.8-5.2c0.4,0.1,0.8,0.2,1.1,0.3c0.1,0.9,0.6,2,0.3,2.8
		c-0.9,2.6-1.8,5.3-3.1,7.7c-8.4,17-16.8,33.9-25.2,50.9c-0.4,0.8-0.9,1.6-1.1,1.8c-4.1-9.4-7.9-19-12.4-28.3
		c-2.9-5.9-7.1-10.9-12.9-14.4c-1.4-0.8-1.6-3.6-2.8-6.6c5.4,2.3,7.4-0.3,8.4-3.4c1.1-3.2,1.8-6.8,1.8-10.2
		c-0.1-27-0.5-54.1-0.6-81.1c0-7.1,0.5-14.2,0.7-21.3c0-1.4-0.1-2.8-0.1-4.2c-0.2-3.4-1.4-5.5-5.4-4.9c-2.1,0.3-4.4,0.1-7.7,0.1
		c1.3-2.7,1.8-4.9,3.2-6.1c9.8-8.5,13.9-20.2,17.3-31.9c4.5-15.5,7.8-31.3,11.1-47.1c1.7-8.1,2.3-16.5,3.5-24.8
		c0.4-2.5,1.4-5,2.1-7.4C643.3,191.8,643.8,191.9,644.3,192z"/>
	<path class="st0" d="M571.7,191.4c0.2,2.3,0.5,3.4,0.5,4.6c0.1,24,0.2,47.9,0.1,71.9c0,11.2-0.2,11.2,10.7,11
		c9.9-0.1,9.9-0.1,9.6,9.6c-0.2,6.4-0.3,12.8-0.5,19.2c0,0.3-0.2,0.5-0.4,1.2c-4.5,0-9.2,0.1-13.9,0c-3.4-0.1-4.8,1-4.8,4.8
		c0.1,30.9-0.1,61.9,0,92.8c0,5.9,0.8,12,2.2,17.7c1.7,7,6.3,8.1,11.7,3.1c2.2-2.1,3.9-4.6,5.8-6.9c0.4,0.1,0.8,0.1,1.1,0.2
		c-0.3,2.1-0.2,4.4-1.1,6.2c-2.2,4.8-5,9.3-7.3,14c-6.4,13.3-12.7,26.6-19.1,39.9c-0.6,1.2-1.2,2.4-2.2,4.3c-0.6-1.3-1-2.1-1.3-2.9
		c-3.5-8.7-6.8-17.6-10.6-26.2c-2.5-5.5-6.3-10.1-11.6-13.4c-3.6-2.2-3.4-2.5-2.9-6.9c6.2-0.8,8.5-3,8.5-9.4
		c-0.1-31.9-0.5-63.8-0.6-95.7c0-5,0.6-10,0.6-15c0.1-5.5-0.4-5.9-5.8-5.8c-1.9,0-3.8,0-6.9,0c1.3-2.8,1.6-5.2,3-6.5
		c9.5-8.6,13.7-20.3,17.3-31.8c7.1-22.2,11.7-44.9,14.1-68.1C568.2,199.6,568.2,195.5,571.7,191.4z"/>
	<path class="st0" d="M805,276.5c-2.8,1.7-5.8,3.2-8.4,5.2c-6.6,5.2-13.1,10.7-19.5,16.2c-1.1,0.9-1.7,2.9-1.7,4.4
		c0,23.8,0.2,47.7,0.2,71.5c0,2.8,1.1,3.9,3.6,5.1c5.2,2.5,10,6,15,9.1c4.5,2.8,5.4,2.5,7.5-2.5c0.5-1.2,1.1-2.5,2.2-4.8
		c1.3,3,2.1,5,3.2,7.5c-7.1,5.4-13.8,11-21.1,15.8c-6.9,4.5-10.1,4-16.3-1.5c-24.9-21.9-51.4-20.6-72.2-10.8
		c-3.4,1.6-6.6,3.8-9.3,6.2c-14.6,12.8-13.4,32.6,2.9,44.3c13.6,9.9,28.9,12.2,45.3,9.4c7.6-1.3,15.4-1.8,23.1-2.7
		c0.1,0.4,0.2,0.8,0.3,1.2c-0.8,0.3-1.5,0.8-2.3,1c-16.9,3.9-33.9,7-51.3,3.3c-19.7-4.1-33.7-20.6-33-39.6
		c0.5-12.6,7.5-21.8,17-29.4c7.9-6.3,17.1-9.1,26.9-10.5c4.2-0.6,8.5-1.6,12.5-3.1c4.9-1.7,7.3-5.3,7.3-10.9
		c-0.1-40.1,0.2-80.3,0-120.4c0-8.3,3.2-14.7,9.1-19.7c4.1-3.4,8.7-7.1,13.7-8.5c5.1-1.4,11-0.7,16.5-0.1c8.3,0.9,15.9,3.9,22.3,9.6
		c2.8,2.5,6.1,4.4,9.2,6.5c2.4,1.6,4.7,1.4,6.7-0.9c3.3-3.7,6.8-7.3,10.2-10.9c0.4,0.3,0.8,0.6,1.2,0.9c-0.7,1.2-1.2,2.6-2.1,3.5
		c-7.3,7.3-14.7,14.4-22,21.6c-2.4,2.3-4.2,0.7-6.2-0.8c-6.3-4.6-12.4-9.4-19-13.6c-6.3-4-13.1-5.9-20.7-3.6
		c-8.9,2.7-13.3,6.9-13.8,16.1c-0.6,12.4-0.1,24.8-0.1,37.8c1.8-0.8,3.3-1.3,4.8-2c9.8-4.4,19.8-7.8,30.7-5.1
		c3.8,1,7.7,2.7,10.8,5.1c3,2.3,5.1,2,7.8,0.2c1.4-0.9,2.8-2.1,4.3-2.5c1.4-0.4,3,0.1,4.5,0.2C804.9,275.2,804.9,275.9,805,276.5z
		 M772.9,376.1c0-3.3,0-5.1,0-6.9c-0.1-19.8-0.6-39.6,0-59.4c0.3-9.3-2.8-16.1-9.3-22.1c-1.3-1.2-2.6-2.5-3.9-3.7
		c-3.7-3.5-7.9-4.3-12.7-2.7c-5.2,1.8-5.4,6.1-5.4,10.6c0.2,20.9,0.4,41.8,0.5,62.7c0.1,13.7,0.1,13.8,13.4,17.7
		C761,373.9,766.6,374.7,772.9,376.1z"/>
	<path class="st0" d="M506.4,89.1c0.7,1.4,1.4,2.6,1.8,3.8c4.2,12.5,8.3,25.1,12.6,37.6c1,2.9,0.9,5-1.1,7.5
		c-8.7,10.7-17.1,21.7-25.8,32.4c-2.1,2.6-3,5.2-2.2,8.4c2,8.4,5.7,15.7,12.5,21.2c5.2,4.2,9.5,3.6,13.8-1.5c1.6-1.8,3.3-3.4,5-5.2
		c0.3,0.3,0.7,0.6,1,0.9c-8.8,13-17.5,26.1-26.4,39.3c-12.7-8-20.6-19.4-23.1-34.4c-3.9-22.8-5.2-45.6-2.1-68.6
		c1.3-9.4,5.2-17.3,12.5-23.4C491.7,101.2,498.8,95.4,506.4,89.1z M491.2,165.4c0.4,0.2,0.9,0.4,1.3,0.6c3.9-4.7,7.9-9.3,11.6-14.1
		c0.6-0.7,0.3-2.4,0-3.5c-3.4-11.9-6.8-23.8-10.3-35.7c-0.4-1.3-1.2-2.4-1.8-3.7c-0.3,0.1-0.5,0.2-0.8,0.3
		C491.2,128.1,491.2,146.7,491.2,165.4z"/>
	<path class="st0" d="M387.8,195.3c-7.5,12.8-15,25.7-22.8,39c-1.8-4.2-2.7-8.2-5-11.3c-3.9-5.4-8.5-10.1-12.8-15.2
		c-0.8-0.9-1.4-1.9-2.2-2.8c1-0.5,2-0.8,3-1.4c2.7-1.6,4-3.8,4-7.1c-0.2-14.9-0.2-29.8-0.2-44.7c0-6.8,0.2-13.6,0.4-20.5
		c0.1-3.4-1-5.6-5.1-5c-1.4,0.2-2.9-0.4-4.8-0.7c0.8-1.3,1.1-2.3,1.8-2.9c12.5-12,17.1-27.6,20.4-43.9c1.5-7.4,2.7-14.8,4.1-22.2
		c0.3-1.5,0.8-2.9,1.2-4.4c0.5,0.1,1.1,0.1,1.6,0.2c0,18,0,35.9,0,54.2c5.3,0.2,9.7,0.4,14.4,0.6c0,6.1,0,12,0,18.4
		c-3.6,0-7.1,0-10.5,0c-2.3,0-3.4,0.9-3.4,3.5c0.1,19.9,0,39.8,0.2,59.8c0,2.6,0.6,5.3,1.5,7.7c1.6,4.3,4.6,5.1,8.2,2.2
		c1.7-1.3,2.8-3.3,4.2-4.9C386.6,194.4,387.2,194.9,387.8,195.3z"/>
	<path class="st0" d="M693.6,371.7c0.5-0.6,0.9-1.4,1.5-1.7c5.3-2,5.9-6,5.8-11c-0.3-18-0.3-36-0.1-53.9c0-4.2-1.5-5.5-5.3-5.2
		c-1.8,0.2-3.6,0.1-5.4,0c-3.3-0.3-5.5,1.1-7.1,4c-0.8,1.5-2.3,2.7-3.4,4.1c-0.6-0.3-1.1-0.6-1.7-0.8c1.5-6.1,2.6-12.4,4.8-18.3
		c1.9-5,6.6-6.4,11.8-6c6.5,0.4,6.6,0.3,6.1-6.2c-0.1-0.7-0.1-1.4-0.2-2.1c-2.2-14.7,3-25.6,16.5-32.4c2.2-1.1,4.1-2.9,6.4-3.9
		c1.9-0.9,4.1-1.2,6.2-1.8c0.2,0.4,0.4,0.9,0.6,1.3c-2,1.6-4,3.2-6,4.8c-4.9,4.2-6.5,9.5-3.9,15.4c3.1,7,3.3,13.8,0.7,21
		c-1.1,3.1-1.4,6.6-1.3,9.8c0.2,19,0.9,37.9,0.9,56.9c0,19.3,0.7,17.5-16.6,24.4c-3.1,1.2-6.4,2-9.6,3
		C694,372.7,693.8,372.2,693.6,371.7z"/>
	<path class="st0" d="M670.9,255.3c-1.4-1.6-2.9-3.1-4.1-4.9c-2-2.9-3.9-5.8-5.4-8.9c-0.8-1.6-1.7-3.9-1.2-5.5
		c3.5-11.6,8.5-22,21-26.7c5-1.9,9.7-0.9,14.3,0.6c5.5,1.9,10.8,4.4,16.1,6.9c7.3,3.6,14.2,3.1,21-1.1c2.3-1.4,4.8-2.6,7.3-3.9
		c0.2,0.7,0.4,1.1,0.3,1.2c-7.2,11.4-17.5,18.7-30.6,21.3c-3.9,0.8-8.5-0.8-12.5-1.9c-4.7-1.3-9.1-3.3-13.7-4.9
		c-6.7-2.3-12.3,0.2-17.5,4.1c-3.1,2.3-3.5,5.8-2,9.1c1.3,3,3.2,5.8,5,8.6c1.1,1.7,2.3,3.3,3.5,4.9
		C671.8,254.7,671.3,255,670.9,255.3z"/>
	<path class="st0" d="M221.6,212.5c-20.2,24.4-40.4,48.7-61.3,74c-0.4-2.6-0.9-4.4-0.9-6.1c0-7.9,0.2-15.9,0.3-23.8
		c0-3.9-5.7-7.6-8.9-5.7c-1,0.6-1.5,2.9-1.5,4.4c-0.1,6.8,0.1,13.6,0.2,20.5c0.1,5.4-0.3,10.9,0.2,16.3c0.5,5.5-1.3,9.6-5.3,13.2
		c-5.1,4.8-9.9,9.9-14.9,14.9c-0.4-0.2-0.7-0.3-1.1-0.5c0-1.3,0-2.6,0-4c0-30.1,0-60.2-0.1-90.3c0-2.8,0.5-4.9,2.9-6.4
		c5.9-3.6,11.9-7.2,17.9-10.7c0.7-0.4,2.1,0.1,2.9,0.6c19.2,12.3,39.3,12.1,60,4.8c2.8-1,5.7-1.8,8.5-2.8
		C221,211.5,221.3,212,221.6,212.5z"/>
	<path class="st0" d="M158.8,318.4c0-5.6,0-11.1,0-16.7c0-2.6,1-4.6,3.6-4.8c6.8-0.4,13.7-1.4,20.3-0.6c13.4,1.6,23.2,9.3,28.8,21.5
		c3.4,7.4,5.7,15.3,8.6,23c1.1,3-0.1,4.6-2.9,5.7c-8.3,3.2-16.8,2.5-25.1,0.8c-10.2-2-20.3-4.8-30.4-7.4c-1.1-0.3-2.5-2.2-2.5-3.5
		c-0.3-6-0.1-12-0.1-18C159,318.4,158.9,318.4,158.8,318.4z"/>
	<path class="st0" d="M185,398.7c5,2,10.1,3.7,14.9,6c3.9,1.8,7.6,4,11.2,6.4c1.1,0.8,2,2.8,2,4.2c0,1.7-0.9,3.5-1.8,5
		c-3.1,5.5-5.9,11.1-9.5,16.1c-2.1,2.9-5.1,5.7-8.3,7.3c-9.9,4.7-20.1,8.8-30.2,13.1c-2.5,1.1-3.8,0.3-3.8-2.4
		c-0.1-13.8-0.1-27.5,0-41.3c0-0.8,0.5-2.1,1.2-2.4c7.3-3.8,14.6-7.4,21.9-11c0.6-0.3,1.4,0,2.1,0C184.8,399.3,184.9,399,185,398.7z
		"/>
	<path class="st0" d="M297.7,294.3c1.4,2.4,2.8,4.8,4.3,7c2.5,3.7,4.9,7.4,7.7,10.9c2.3,2.8,3.6,5.6,3.6,9.4
		c0.1,35.5,0.4,71.1,0.7,106.6c0.1,7.7-4.3,12.7-9.4,17.3c-2.1,1.9-4.5,1.1-5.4-1.4c-1.2-3.1-2.3-6.4-2.3-9.6
		c-0.2-46-0.2-91.9-0.3-137.9c0-0.6,0.1-1.3,0.1-1.9C297.1,294.5,297.4,294.4,297.7,294.3z"/>
	<path class="st0" d="M479.3,283.7c1.4,5.9,2.8,11.7,4.2,17.6c3.9,15.9,8,31.8,11.7,47.7c0.5,2,0,4.7-1.1,6.4
		c-3.9,6.4-8.3,12.5-12.6,18.7c-0.7,1.1-1.5,2.1-2.3,3.2c-0.4-0.1-0.9-0.3-1.3-0.4c0-31,0-62,0-92.9
		C478.5,283.9,478.9,283.8,479.3,283.7z"/>
	<path class="st0" d="M772.9,376.1c-6.3-1.3-11.9-2.2-17.3-3.7c-13.3-3.8-13.3-3.9-13.4-17.7c-0.2-20.9-0.3-41.8-0.5-62.7
		c0-4.5,0.2-8.8,5.4-10.6c4.7-1.6,9-0.9,12.7,2.7c1.3,1.3,2.6,2.5,3.9,3.7c6.5,5.9,9.6,12.8,9.3,22.1c-0.7,19.8-0.1,39.6,0,59.4
		C772.9,371,772.9,372.8,772.9,376.1z"/>
</g>
</svg>
